<?xml version="1.0" encoding="utf-8"?>
<!-- Generator: Adobe Illustrator 24.0.1, SVG Export Plug-In . SVG Version: 6.00 Build 0)  -->
<svg version="1.1" id="Layer_1" xmlns="http://www.w3.org/2000/svg" xmlns:xlink="http://www.w3.org/1999/xlink" x="0px" y="0px"
	 viewBox="0 0 24 24" style="enable-background:new 0 0 24 24;" xml:space="preserve">
<style type="text/css">
	.st0{fill:none;stroke:#1C212E;stroke-width:2;}
	.st1{fill-rule:evenodd;clip-rule:evenodd;fill:#1C212E;}
</style>
<g id="icon_x2F_Apps_Light">
	<path id="fill_x2F__1" class="st0" d="M12.3,22c-0.6,0-1.1-0.1-1.7-0.4l-5.8-3.3c-1-0.6-1.7-1.7-1.7-2.9L3,8.7
		c0-1.2,0.6-2.3,1.6-2.9l5.8-3.4C10.9,2.2,11.5,2,12.1,2s1.1,0.1,1.7,0.4l5.8,3.3c1,0.6,1.7,1.7,1.7,2.8l0.1,6.7
		c0,1.2-0.6,2.3-1.6,2.9l-5.8,3.4C13.4,21.8,12.8,22,12.3,22"/>
	<path id="fill_x2F__3" class="st1" d="M13.8,10.1c-0.3-0.4-0.3-0.9,0-1.3s0.9-0.4,1.2,0c0.3,0.4,0.3,0.9,0,1.3
		C14.6,10.4,14.1,10.4,13.8,10.1z M13.2,13.5c0,0,4-2.9,3.6-6.2c0-0.1,0-0.1-0.1-0.2c0,0-0.1-0.1-0.1-0.1c-3.2-0.4-6.1,3.7-6.1,3.7
		c-2.5-0.3-2.3,0.2-3.4,2.9c-0.2,0.5,0.1,0.7,0.5,0.6C8,14,8.8,13.7,8.8,13.7l1.5,1.5c0,0-0.3,0.9-0.4,1.3c-0.1,0.4,0,0.8,0.5,0.5
		C13,15.8,13.5,16,13.2,13.5z"/>
</g>
</svg>
