<?xml version="1.0" encoding="utf-8"?>
<!-- Generator: Adobe Illustrator 24.0.1, SVG Export Plug-In . SVG Version: 6.00 Build 0)  -->
<svg version="1.1" id="Layer_1" xmlns="http://www.w3.org/2000/svg" xmlns:xlink="http://www.w3.org/1999/xlink" x="0px" y="0px"
	 viewBox="0 0 24 24" style="enable-background:new 0 0 24 24;" xml:space="preserve">
<style type="text/css">
	.st0{fill:#1C212E;}
	.st1{fill:#FFFFFF;}
	.st2{fill:#008DA5;}
</style>
<path class="st0" d="M19.8,23.7h-15c-0.4,0-0.8-0.4-0.8-0.8V2.6c0-0.5,0.4-0.8,0.8-0.8h15c0.5,0,0.8,0.4,0.8,0.8v20.3
	C20.6,23.3,20.3,23.7,19.8,23.7z"/>
<g>
	<polygon class="st1" points="19.5,3.3 19.5,18.9 16.1,22.3 5.1,22.3 5.1,3.3 	"/>
	<polygon class="st1" points="16.1,22.3 16.1,18.9 19.5,18.9 	"/>
</g>
<g>
	<rect x="7.2" y="11.2" class="st2" width="10.2" height="1.2"/>
	<rect x="7.2" y="13.8" class="st2" width="10.2" height="1.2"/>
	<rect x="7.2" y="16.5" class="st2" width="10.2" height="1.2"/>
</g>
<g>
	<circle class="st2" cx="12.3" cy="7.1" r="2.7"/>
	<rect x="11.6" y="5.2" class="st1" width="1.3" height="3.9"/>
	<rect x="10.3" y="6.5" class="st1" width="3.9" height="1.3"/>
</g>
<g>
	<path class="st0" d="M15.9,2.5c0,0.3,0,0.6,0,0.6v0.2l-3.6,0l0-1.7l0.6,0c0,0-0.2-0.6-0.6-0.6V0.5c1,0,1.1,1.1,1.1,1.1l1.9,0.1
		C15.2,1.6,15.9,1.8,15.9,2.5z"/>
	<path class="st2" d="M12.3,3.3l-3.6,0l0-0.8c0,0,0-0.9,0.8-0.9s1.8-0.1,1.8-0.1s0-1.1,1-1.1c0,0,0,0,0,0V1c0,0,0,0,0,0
		c-0.4,0-0.6,0.6-0.6,0.6l0.6,0L12.3,3.3z"/>
</g>
<path class="st2" d="M13.3,17.4V20c0,0.4-0.4,0.8-0.9,0.8h-0.2c-0.5,0-0.9-0.4-0.9-0.8v-2.6c-0.9-0.3-1.6-1.2-1.6-2.2
	c0-1.3,1.1-2.3,2.5-2.3s2.5,1,2.5,2.3C14.8,16.2,14.2,17,13.3,17.4z"/>
</svg>
