<?xml version="1.0" encoding="utf-8"?>
<!-- Generator: Adobe Illustrator 24.0.1, SVG Export Plug-In . SVG Version: 6.00 Build 0)  -->
<svg version="1.1" baseProfile="basic" id="Layer_1"
	 xmlns="http://www.w3.org/2000/svg" xmlns:xlink="http://www.w3.org/1999/xlink" x="0px" y="0px" viewBox="0 0 24 24"
	 xml:space="preserve">
<g>
	<path fill="#1C212E" d="M7,8.8H5.1C4.6,8.8,4.3,8.4,4.3,8v0c0-2.6,1.5-5,3.8-6c1.2-0.5,2.5-0.7,4-0.7c2.1,0,4,0.6,5.5,1.7
		c1.5,1.1,2.3,2.6,2.3,4.4c0,0.9-0.2,1.7-0.6,2.4c-0.4,0.7-0.9,1.3-1.5,1.7c-0.6,0.4-1.2,0.9-1.7,1.3c-0.6,0.4-1.1,0.8-1.5,1.3
		c-0.4,0.5-0.6,1-0.6,1.5v0v1.1v0.7c0,0.4-0.4,0.8-0.8,0.8h-1.9c-0.4,0-0.8-0.4-0.8-0.8v-0.7c0,0,0-0.1,0-0.2c0-0.1,0-0.3,0-0.4
		c0-0.2,0-0.4,0-0.6c0-1,0.2-1.9,0.6-2.7c0.4-0.8,0.9-1.4,1.5-1.9c0.6-0.5,1.2-0.9,1.8-1.3c0.6-0.4,1.1-0.7,1.5-1.1
		c0.4-0.4,0.6-0.7,0.6-1.1c0-1-0.4-1.8-1.3-2.3c-0.8-0.6-1.8-0.9-3-0.9c-1.2,0-2.1,0.3-3,0.8C8.2,5.6,7.8,6.3,7.8,7.3V8
		C7.8,8.4,7.4,8.8,7,8.8z M11.1,19.9H13c0.4,0,0.8,0.4,0.8,0.8v0.7v0.1v0.7c0,0.4-0.4,0.8-0.8,0.8h-1.9c-0.4,0-0.8-0.4-0.8-0.8v-0.7
		v-0.1v-0.7C10.3,20.3,10.7,19.9,11.1,19.9z"/>
</g>
</svg>
