<?xml version="1.0" encoding="utf-8"?>
<!-- Generator: Adobe Illustrator 24.0.1, SVG Export Plug-In . SVG Version: 6.00 Build 0)  -->
<svg version="1.1" id="Layer_1" xmlns="http://www.w3.org/2000/svg" xmlns:xlink="http://www.w3.org/1999/xlink" x="0px" y="0px"
	 viewBox="0 0 16 16" style="enable-background:new 0 0 16 16;" xml:space="preserve">
<style type="text/css">
	.st0{fill-rule:evenodd;clip-rule:evenodd;fill:#1C212E;}
</style>
<path class="st0" d="M16,12.5c0-4.5-4-3.5-4-7c0-0.3,0-0.5-0.1-0.7C11.7,3,10.5,1.6,9,1.1c0,0,0-0.1,0-0.2C9,0.4,8.5,0,8,0
	C7.4,0,7,0.4,7,0.9C7,1,7,1.1,7,1.1C5.3,1.6,4,3.3,4,5.4v0.1C4,9,0,8,0,12.5c0,1.2,2.7,2.2,6.2,2.4C6.6,15.6,7.2,16,8,16
	s1.4-0.4,1.8-1.1C13.3,14.7,16,13.7,16,12.5L16,12.5L16,12.5z M12.9,13.3C12,13.6,11,13.7,10,13.8c-0.1-1-1-1.8-2-1.8
	s-1.9,0.8-2,1.8c-1.1-0.1-2.1-0.3-2.9-0.5c-1.2-0.3-1.7-0.7-1.9-0.8C1.4,12.3,2,12,3.1,11.7c1.4-0.4,3.1-0.6,4.9-0.6
	s3.5,0.2,4.9,0.6c1.2,0.3,1.7,0.7,1.9,0.8C14.6,12.7,14.1,13,12.9,13.3z"/>
</svg>
