<?xml version="1.0" encoding="utf-8"?>
<!-- Generator: Adobe Illustrator 24.0.1, SVG Export Plug-In . SVG Version: 6.00 Build 0)  -->
<svg version="1.1" id="Layer_1" xmlns="http://www.w3.org/2000/svg" xmlns:xlink="http://www.w3.org/1999/xlink" x="0px" y="0px"
	 viewBox="0 0 24 24" style="enable-background:new 0 0 24 24;" xml:space="preserve">
<style type="text/css">
	.st0{fill-rule:evenodd;clip-rule:evenodd;fill:#1C212E;}
	
		.st1{opacity:0.3109;fill:none;stroke:#1C212E;stroke-width:0.5;stroke-linecap:round;stroke-linejoin:round;enable-background:new    ;}
	.st2{opacity:0.3109;fill:none;stroke:#1C212E;stroke-width:0.5;stroke-linejoin:round;enable-background:new    ;}
</style>
<g id="icon_x2F_things_x5F_v2">
	<path id="Windows_Copy" class="st0" d="M18.8,3l4.8,8.3c0.2,0.3,0.3,0.7,0.3,1s-0.1,0.7-0.3,1l-4.9,8.3c-0.2,0.3-0.4,0.6-0.7,0.8
		c-0.3,0.2-0.7,0.3-1,0.3H7.4c-0.4,0-0.7-0.1-1-0.3c-0.3-0.2-0.6-0.4-0.7-0.8l-4.9-8.3c-0.2-0.3-0.3-0.7-0.3-1s0.1-0.7,0.3-1L5.6,3
		C5.8,2.7,6,2.5,6.3,2.3C6.7,2.1,7,2,7.4,2H17c0.4,0,0.7,0.1,1,0.3C18.4,2.5,18.6,2.7,18.8,3z M22.4,12.7c0.1-0.2,0.1-0.5,0-0.7
		l-4.8-8.3c-0.1-0.2-0.3-0.3-0.6-0.3H7.4c-0.3,0-0.5,0.1-0.6,0.3L2,12c-0.1,0.2-0.1,0.5,0,0.7l4.8,8.3c0.1,0.2,0.3,0.3,0.6,0.3H17
		c0.3,0,0.5-0.1,0.6-0.3L22.4,12.7z"/>
	<g id="Group_8">
		<path id="Windows_Copy_4" class="st0" d="M17.4,10.2l1.2,2.1c0,0.1,0.1,0.2,0.1,0.3s0,0.2-0.1,0.3l-1.2,2.1c0,0.1-0.1,0.1-0.2,0.2
			c-0.1,0.1-0.2,0.1-0.3,0.1h-2.4c-0.1,0-0.2,0-0.3-0.1c-0.1-0.1-0.1-0.1-0.2-0.2l-1.2-2.1c0-0.1-0.1-0.2-0.1-0.3s0-0.2,0.1-0.3
			l1.2-2.1c0-0.1,0.1-0.1,0.2-0.2c0.1-0.1,0.2-0.1,0.3-0.1H17c0.1,0,0.2,0,0.3,0.1C17.3,10,17.4,10.1,17.4,10.2z M18.4,12.6
			c0-0.1,0-0.1,0-0.2l-1.2-2.1c0-0.1-0.1-0.1-0.1-0.1h-2.4c-0.1,0-0.1,0-0.1,0.1l-1.2,2.1c0,0.1,0,0.1,0,0.2l1.2,2.1
			c0,0.1,0.1,0.1,0.1,0.1H17c0.1,0,0.1,0,0.1-0.1L18.4,12.6z"/>
		<path id="Line_3" class="st1" d="M10.2,11.1v3.7"/>
		<path id="Line_3_Copy" class="st2" d="M13.9,13.9l-3,1.9"/>
		<path id="Line_3_Copy_2" class="st2" d="M13.9,11.1l-3-1.9"/>
		<path id="Windows_Copy_3" class="st0" d="M11.9,13.6l1.2,2.1c0,0.1,0.1,0.2,0.1,0.3c0,0.1,0,0.2-0.1,0.3l-1.2,2.1
			c0,0.1-0.1,0.1-0.2,0.2c-0.1,0-0.2,0.1-0.3,0.1H9c-0.1,0-0.2,0-0.3-0.1s-0.1-0.1-0.2-0.2l-1.2-2.1c0-0.1-0.1-0.2-0.1-0.3
			s0-0.2,0.1-0.3l1.2-2.1c0-0.1,0.1-0.1,0.2-0.2c0.1-0.1,0.2-0.1,0.3-0.1h2.4c0.1,0,0.2,0,0.3,0.1C11.8,13.5,11.9,13.6,11.9,13.6z"
			/>
		<path id="Windows_Copy_2" class="st0" d="M11.9,6.7l1.2,2.1c0,0.1,0.1,0.2,0.1,0.3s0,0.2-0.1,0.3l-1.2,2.1c0,0.1-0.1,0.1-0.2,0.2
			c-0.1,0.1-0.2,0.1-0.3,0.1H9c-0.1,0-0.2,0-0.3-0.1c-0.1-0.1-0.1-0.1-0.2-0.2L7.4,9.3c0-0.1-0.1-0.2-0.1-0.3s0-0.2,0.1-0.3l1.2-2.1
			c0-0.1,0.1-0.1,0.2-0.2S8.9,6.5,9,6.5h2.4c0.1,0,0.2,0,0.3,0.1C11.8,6.6,11.9,6.7,11.9,6.7z"/>
	</g>
</g>
</svg>
