<?xml version="1.0" encoding="utf-8"?>
<!-- Generator: Adobe Illustrator 24.0.1, SVG Export Plug-In . SVG Version: 6.00 Build 0)  -->
<svg version="1.1" id="Layer_1" xmlns="http://www.w3.org/2000/svg" xmlns:xlink="http://www.w3.org/1999/xlink" x="0px" y="0px"
	 viewBox="0 0 459 645" style="enable-background:new 0 0 459 645;" xml:space="preserve">
<style type="text/css">
	.st0{fill:none;stroke:#008DA5;stroke-width:4.752;}
	.st1{fill:none;stroke:#008DA5;stroke-width:4.752;stroke-linecap:round;stroke-linejoin:round;}
	.st2{fill:none;stroke:#008DA5;stroke-width:3.7616;}
	.st3{fill:none;stroke:#008DA5;stroke-width:6.9632;stroke-linecap:round;stroke-linejoin:round;}
	.st4{fill-rule:evenodd;clip-rule:evenodd;fill:#FEFEFE;}
	.st5{fill:none;stroke:#FFCB12;stroke-width:4.4608;stroke-linecap:round;stroke-linejoin:round;}
	.st6{fill-rule:evenodd;clip-rule:evenodd;fill:#FFCB12;}
	.st7{fill-rule:evenodd;clip-rule:evenodd;fill:#008DA5;}
	.st8{fill:none;stroke:#FFCB12;stroke-width:1.8592;stroke-linecap:round;stroke-linejoin:round;}
	.st9{opacity:0.8286;}
	.st10{opacity:0.3255;fill-rule:evenodd;clip-rule:evenodd;fill:url(#Fill-1_2_);enable-background:new    ;}
	.st11{opacity:0.2332;fill-rule:evenodd;clip-rule:evenodd;fill:url(#Fill-4_2_);enable-background:new    ;}
	.st12{fill:none;stroke:#FFCB12;stroke-width:16.6304;}
	.st13{fill:none;stroke:#FFCB12;stroke-width:7.128;}
</style>
<title>Group 14</title>
<desc>Created with Sketch.</desc>
<g id="_x34_.1-Error-V2" transform="translate(-121.000000, -189.000000)">
	<g id="Group-14" transform="translate(129.000000, 197.000000)">
		<g id="Group-4" transform="translate(49.644928, 177.655779)">
			<g id="Group-19" transform="translate(2.550456, 57.175963)">
				<path id="Stroke-1" class="st0" d="M335.5,75.4c0,8.4-6.8,15.2-15.1,15.2s-15.1-6.8-15.1-15.2s6.8-15.2,15.1-15.2
					C328.8,60.3,335.5,67.1,335.5,75.4z"/>
				<path id="Stroke-3" class="st1" d="M328.6,225.3v22.8"/>
				<path id="Stroke-5" class="st1" d="M340,236.7h-22.7"/>
				<path id="Stroke-7" class="st2" d="M220.7,213.3c0,6.6-5.4,12-12,12s-12-5.4-12-12c0-6.6,5.4-12,12-12S220.7,206.7,220.7,213.3z
					"/>
				<path id="Stroke-9" class="st1" d="M3.9,238.8l13.2,18.5"/>
				<path id="Stroke-11" class="st1" d="M19.7,241.5L1.2,254.7"/>
				<path id="Stroke-13" class="st0" d="M81.1,363.6c0,8.4-6.8,15.2-15.2,15.2s-15.2-6.8-15.2-15.2s6.8-15.2,15.2-15.2
					C74.3,348.5,81.1,355.2,81.1,363.6z"/>
				<path id="Stroke-15" class="st3" d="M76.1,0.5l19.3,27.2"/>
				<path id="Stroke-17" class="st3" d="M99.3,4.3L72.2,23.7"/>
			</g>
			<g id="Group-51" transform="translate(20.403650, 105.730434)">
				<polygon id="Fill-1" class="st4" points="314,246.4 227.1,283.5 202,224.4 288.9,187.4 				"/>
				<polygon id="Stroke-2" class="st5" points="314,246.4 227.1,283.5 202,224.4 288.9,187.4 				"/>
				<polygon id="Fill-4" class="st4" points="202,224.4 190,196.1 276.9,159.1 288.9,187.4 				"/>
				<polygon id="Stroke-5_1_" class="st5" points="202,224.4 190,196.1 276.9,159.1 288.9,187.4 				"/>
				<g id="Group-50" transform="translate(0.000000, 0.835648)">
					<path id="Fill-6" class="st6" d="M212.6,202.4c0.8,1.9-0.1,4.2-2,5c-1.9,0.8-4.2-0.1-5-2c-0.8-1.9,0.1-4.2,2-5
						C209.5,199.5,211.7,200.4,212.6,202.4"/>
					<path id="Fill-8" class="st6" d="M224.4,197.3c0.8,1.9-0.1,4.2-2,5c-1.9,0.8-4.2-0.1-5-2s0.1-4.2,2-5
						C221.3,194.5,223.5,195.4,224.4,197.3"/>
					<path id="Fill-10" class="st6" d="M236.1,192.3c0.8,1.9-0.1,4.2-2,5c-1.9,0.8-4.2-0.1-5-2c-0.8-1.9,0.1-4.2,2-5
						C233.1,189.5,235.3,190.4,236.1,192.3"/>
					<g id="Group-15" transform="translate(265.247450, 172.818901)">
						<path id="Fill-12" class="st7" d="M5.2,0.2L0.7,11.4"/>
						<path id="Stroke-14" class="st8" d="M5.2,0.2L0.7,11.4"/>
					</g>
					<g id="Group-19_1_" transform="translate(261.747987, 176.329396)">
						<path id="Fill-16" class="st7" d="M0.8,0L12,4.5"/>
						<path id="Stroke-18" class="st8" d="M0.8,0L12,4.5"/>
					</g>
					<path id="Fill-20" class="st4" d="M171.2,0.2h-29c-2.7,0-5,2.3-5,5v49.3c0,2.7,2.3,5,5,5h38.6c2.7,0,5-2.3,5-5V14.8L171.2,0.2z
						"/>
					<path id="Stroke-22" class="st5" d="M171.2,0.2h-29c-2.7,0-5,2.3-5,5v49.3c0,2.7,2.3,5,5,5h38.6c2.7,0,5-2.3,5-5V14.8
						L171.2,0.2z"/>
					<polygon id="Fill-24" class="st4" points="171.2,0.2 166.9,8.6 185.8,14.8 					"/>
					<polygon id="Stroke-26" class="st5" points="171.2,0.2 166.9,8.6 185.8,14.8 					"/>
					<polygon id="Fill-28" class="st4" points="70.1,142.6 1,131.6 8.4,84.7 77.5,95.6 					"/>
					<polygon id="Stroke-30" class="st5" points="70.1,142.6 1,131.6 8.4,84.7 77.5,95.6 					"/>
					<polygon id="Fill-32" class="st4" points="8.4,84.7 11.9,62.2 81,73.2 77.5,95.6 					"/>
					<polygon id="Stroke-34" class="st5" points="8.4,84.7 11.9,62.2 81,73.2 77.5,95.6 					"/>
					<path id="Fill-36" class="st6" d="M23.3,75.6c-0.2,1.5-1.7,2.6-3.2,2.3c-1.5-0.2-2.6-1.7-2.3-3.2s1.7-2.6,3.2-2.3
						C22.5,72.6,23.6,74,23.3,75.6"/>
					<path id="Fill-38" class="st6" d="M32.7,77c-0.2,1.5-1.7,2.6-3.2,2.3c-1.5-0.3-2.6-1.7-2.3-3.2s1.7-2.6,3.2-2.3
						C31.9,74.1,32.9,75.5,32.7,77"/>
					<path id="Fill-40" class="st6" d="M42.1,78.5c-0.2,1.5-1.7,2.6-3.2,2.3c-1.5-0.2-2.6-1.7-2.3-3.2c0.2-1.5,1.7-2.6,3.2-2.3
						C41.3,75.5,42.3,77,42.1,78.5"/>
					<g id="Group-45" transform="translate(63.761406, 79.220453)">
						<path id="Fill-42" class="st7" d="M7.4,0.7L0.2,5.9"/>
						<path id="Stroke-44" class="st8" d="M7.4,0.7L0.2,5.9"/>
					</g>
					<g id="Group-49" transform="translate(63.761406, 78.265457)">
						<path id="Fill-46" class="st7" d="M1.2,0.6l5.2,7.2"/>
						<path id="Stroke-48" class="st8" d="M1.2,0.6l5.2,7.2"/>
					</g>
				</g>
			</g>
			<g id="Group-7" class="st9">
				<g id="Group-3" transform="translate(0.000000, 404.764645)">
					<g id="Clip-2">
					</g>
					
						<linearGradient id="Fill-1_2_" gradientUnits="userSpaceOnUse" x1="-2647.8669" y1="44.8106" x2="-2646.8669" y2="44.8106" gradientTransform="matrix(342.1922 0 0 53.1263 906079.4375 -2353.5183)">
						<stop  offset="0" style="stop-color:#008DA5"/>
						<stop  offset="1.450000e-02" style="stop-color:#008DA5"/>
						<stop  offset="0.2443" style="stop-color:#008DA5"/>
						<stop  offset="0.4643" style="stop-color:#008DA5"/>
						<stop  offset="0.6694" style="stop-color:#008DA5"/>
						<stop  offset="0.8539" style="stop-color:#008DA5"/>
						<stop  offset="1" style="stop-color:#008DA5"/>
					</linearGradient>
					<path id="Fill-1_1_" class="st10" d="M341.9,25.6c-4.9-14-79.5-25.1-170.8-25.1S5.1,11.7,0.3,25.6L0,27.1
						c0,14.7,76.6,26.6,171.1,26.6s171.1-11.9,171.1-26.6L341.9,25.6z"/>
				</g>
				<g id="Group-6" transform="translate(0.000000, 0.040888)">
					<g id="Clip-5">
					</g>
					
						<linearGradient id="Fill-4_2_" gradientUnits="userSpaceOnUse" x1="-2647.856" y1="5.9759" x2="-2646.856" y2="5.9759" gradientTransform="matrix(341.6667 0 0 429.868 904684.875 -2353.0164)">
						<stop  offset="0" style="stop-color:#008DA5"/>
						<stop  offset="1.450000e-02" style="stop-color:#008DA5"/>
						<stop  offset="0.2443" style="stop-color:#008DA5"/>
						<stop  offset="0.4643" style="stop-color:#008DA5"/>
						<stop  offset="0.6694" style="stop-color:#008DA5"/>
						<stop  offset="0.8539" style="stop-color:#008DA5"/>
						<stop  offset="1" style="stop-color:#008DA5"/>
					</linearGradient>
					<path id="Fill-4_1_" class="st11" d="M230.9,26.2c0-14-5.7-25.3-59.4-25.3s-59.4,11.3-59.4,25.3L0.7,430.8
						c4.9-14,79.5-25.1,170.8-25.1c91.4,0,166,11.1,170.8,25.1L230.9,26.2z"/>
				</g>
			</g>
		</g>
		<g id="Group-9">
			<path id="Stroke-1_1_" class="st12" d="M318.6,98.1c0,53.9-43.9,97.6-98,97.6s-98-43.7-98-97.6s43.9-97.6,98-97.6
				S318.6,44.2,318.6,98.1z"/>
			<path id="Stroke-3_1_" class="st13" d="M251,98.1c0,16.7-13.6,30.2-30.4,30.2s-30.4-13.5-30.4-30.2s13.6-30.2,30.4-30.2
				S251,81.4,251,98.1z"/>
			<path id="Fill-5" class="st4" d="M433.5,133.3c0,0-86.1-27.7-211.9-27.8l0,0c-0.1,0-0.2,0-0.3,0s-0.2,0-0.3,0l0,0
				C95.1,105.6,9,133.3,9,133.3c-37.9,20.5,59,62.2,137.8,71.9c49,6,70.7,5.3,74.4,5.3c0,0,25.4,0.7,74.4-5.3
				C374.5,195.5,471.4,153.7,433.5,133.3"/>
			<path id="Stroke-7_1_" class="st12" d="M433.5,133.3c0,0-86.1-27.7-211.9-27.8l0,0c-0.1,0-0.2,0-0.3,0s-0.2,0-0.3,0l0,0
				C95.1,105.6,9,133.3,9,133.3c-37.9,20.5,59,62.2,137.8,71.9c49,6,70.7,5.3,74.4,5.3c0,0,25.4,0.7,74.4-5.3
				C374.5,195.5,471.4,153.7,433.5,133.3z"/>
		</g>
	</g>
</g>
</svg>
