<svg id="Layer_1" data-name="Layer 1" xmlns="http://www.w3.org/2000/svg" viewBox="0 0 1324.68 1720.86"><defs><style>.cls-1{fill:#d7f3e3;}.cls-2{fill:#1c212e;}.cls-3{fill:#008890;}.cls-4{fill:#185e80;}.cls-5{fill:#ffbc04;}.cls-6{fill:#ffcb12;}</style></defs><title>APP LOGO SHIELD</title><path class="cls-1" d="M5.29,259.71S252.44,71.87,587.58,59s602.05,97.87,731.56,202.66c0,0,18.78,149.28-12.85,410.27s-125.55,494.31-225.4,638.64-217.49,272.86-416.2,410.27c-195.75-116.65-358.87-321.29-358.87-321.29s-142.36-196.74-210.57-390.5S-15.47,499.94,5.29,259.71Z"/><path class="cls-2" d="M109.25,362.3s208.05-157.23,490.15-168S1106.2,276.24,1215.22,364c0,0,15.81,125-10.82,343.43S1098.71,1121.16,1014.66,1242s-183.08,228.4-350.35,343.43c-164.77-97.65-302.08-269-302.08-269S242.4,1151.78,185,989.58,91.78,563.39,109.25,362.3Z"/><path class="cls-3" d="M815.71,678.72,609.51,816.94l-76,118.61H316.2a50.5,50.5,0,0,1-50.5-50.5V729.22a50.5,50.5,0,0,1,50.5-50.5H547.29V447.63a50.5,50.5,0,0,1,50.5-50.5H753.62a50.5,50.5,0,0,1,50.5,50.5V678.72Z"/><path class="cls-4" d="M1085.7,729.22V885.05a50.5,50.5,0,0,1-50.5,50.5H804.12v231.08a50.5,50.5,0,0,1-50.5,50.5H597.79a50.5,50.5,0,0,1-50.5-50.5V935.55H533.5l76-118.61,206.2-138.22H1035.2A50.5,50.5,0,0,1,1085.7,729.22Z"/><path class="cls-5" d="M961.06,514.72c-13.41,62.92-77.36,160.91-104.18,191.85S778.49,798.37,744.46,819s-149.56,98-195,140.27c-36.92,34.41-67.7,59.94-77.89,68.27C488.2,997,529.52,927.22,576.33,878.82,637.19,815.9,742.39,754,755.8,742.67,767.32,732.91,897,606.56,960,515.59Z"/><path class="cls-6" d="M961.05,515.59c-63,91-192.7,217.32-204.22,227.08C743.42,754,638.22,815.9,577.36,878.82c-46.81,48.4-88.12,118.16-104.71,148.72-2.33,1.9-3.59,2.9-3.59,2.9S487.63,947.93,515.48,884s58.79-97,128.93-145.44c6.18-4.28,220.28-150,225.88-154.71C903,556.21,918.52,550.9,961.05,515.59Z"/></svg>