<svg id="Layer_1" data-name="Layer 1" xmlns="http://www.w3.org/2000/svg" viewBox="0 0 3507.43 1697.95"><defs><style>.cls-1{fill:#d7f3e3;}.cls-2{fill:#1c212e;}.cls-3{fill:#008890;}.cls-4{fill:#185e80;}.cls-5{fill:#ffbc04;}.cls-6{fill:#ffcb12;}.cls-7{font-size:500px;font-family:Elevationnormal, Elevation;}.cls-7,.cls-9{fill:#185877;}.cls-8{fill:#fff;}.cls-9{fill-rule:evenodd;}</style></defs><title>APP LOGO SHIELD</title><path class="cls-1" d="M23.32,223.25S270.47,35.42,605.6,22.57s602.06,97.87,731.57,202.66c0,0,18.78,149.28-12.85,410.27s-125.55,494.3-225.4,638.64S881.42,1547,682.72,1684.41c-195.75-116.66-358.87-321.3-358.87-321.3s-142.36-196.73-210.57-390.5S2.56,463.48,23.32,223.25Z"/><path class="cls-2" d="M127.28,325.85s208.05-157.24,490.15-168,506.8,81.92,615.82,169.64c0,0,15.81,125-10.82,343.43s-105.69,413.77-189.74,534.59S849.61,1433.92,682.34,1549c-164.77-97.65-302.08-269-302.08-269S260.43,1115.32,203,953.12,109.81,526.94,127.28,325.85Z"/><path class="cls-3" d="M833.74,642.27,627.54,780.49l-76,118.61H334.23a50.5,50.5,0,0,1-50.5-50.5V692.77a50.5,50.5,0,0,1,50.5-50.5H565.32V411.18a50.5,50.5,0,0,1,50.5-50.5H771.65a50.5,50.5,0,0,1,50.5,50.5V642.27Z"/><path class="cls-4" d="M1103.73,692.77V848.6a50.5,50.5,0,0,1-50.5,50.5H822.15v231.08a50.5,50.5,0,0,1-50.5,50.5H615.82a50.5,50.5,0,0,1-50.5-50.5V899.1H551.53l76-118.61,206.2-138.22h219.49A50.5,50.5,0,0,1,1103.73,692.77Z"/><path class="cls-5" d="M979.09,478.27c-13.41,62.91-77.36,160.9-104.18,191.85s-78.39,91.79-112.42,112.42-149.56,98-195,140.28c-36.92,34.41-67.7,59.94-77.89,68.26,16.58-30.55,57.9-100.32,104.71-148.71,60.86-62.92,166.06-124.81,179.47-136.15C785.35,696.46,915,570.11,978.05,479.13Z"/><path class="cls-6" d="M979.08,479.13c-63,91-192.7,217.33-204.22,227.09-13.41,11.34-118.61,73.23-179.47,136.15-46.81,48.39-88.13,118.16-104.71,148.71-2.33,1.91-3.59,2.91-3.59,2.91s18.57-82.52,46.41-146.47,58.8-96.95,128.94-145.43c6.18-4.28,220.28-150,225.88-154.72C921.06,519.75,936.55,514.45,979.08,479.13Z"/><text class="cls-7" transform="translate(1552.27 1026.26)">medisafe</text><rect class="cls-8" x="2491.54" y="688.49" width="104" height="74"/><path class="cls-9" d="M2589.39,685.5c0,18.82-23.76,39.89-50.88,66.61-26-25.62-50.88-47.63-50.88-66.61,0-17.53,14.19-24,24.43-24,6.06,0,19.2,2.31,26.45,20.62,7.35-18.36,20.64-20.58,26.49-20.58C2576.74,661.53,2589.39,669,2589.39,685.5Z"/></svg>