<?xml version="1.0" encoding="utf-8"?>
<!-- Generator: Adobe Illustrator 24.0.1, SVG Export Plug-In . SVG Version: 6.00 Build 0)  -->
<svg version="1.1" id="Layer_1" xmlns="http://www.w3.org/2000/svg" xmlns:xlink="http://www.w3.org/1999/xlink" x="0px" y="0px"
	 viewBox="0 0 24 24" style="enable-background:new 0 0 24 24;" xml:space="preserve">
<style type="text/css">
	.st0{fill:#1C212E;}
</style>
<path class="st0" d="M20.6,15.6l-1.5,0.2l0.2,1.3h1.3V15.6z M17.7,11.4l-1.1-1.1l-1.4,1.4l1.8,1L17.7,11.4z M9.3,11.9l0.6-1.4
	l-0.3-0.1H9.3V11.9z M14.7,11.9v-1.5h-0.3L14,10.5L14.7,11.9z M6.2,11.4l0.7,1.3l1.8-1l-1.4-1.4L6.2,11.4z M3.3,15.6v1.5h1.3
	l0.2-1.3L3.3,15.6z M3.2,7.9C3,7.9,2.8,7.8,2.5,7.6L0.4,9.7c0.8,0.8,1.7,1.2,2.8,1.2V7.9z M2.5,7.6C2.3,7.4,2.2,7.2,2.2,6.9h-3
	C-0.8,8-0.4,9,0.4,9.7L2.5,7.6z M2.2,6.9c0-0.3,0.1-0.5,0.3-0.7L0.4,4.1c-0.8,0.8-1.2,1.7-1.2,2.8C-0.8,6.9,2.2,6.9,2.2,6.9z
	 M2.5,6.2C2.8,6,3,5.9,3.2,5.9v-3c-1.1,0-2.1,0.4-2.8,1.2L2.5,6.2z M3.2,5.9c0.3,0,0.5,0.1,0.7,0.3L6,4.1C5.3,3.3,4.3,2.9,3.2,2.9
	V5.9z M3.9,6.2c0.2,0.2,0.3,0.4,0.3,0.7h3c0-1.1-0.4-2.1-1.2-2.8L3.9,6.2z M4.2,6.9c0,0.3-0.1,0.5-0.3,0.7L6,9.7
	C6.8,8.9,7.2,8,7.2,6.9H4.2z M3.9,7.6C3.7,7.8,3.5,7.9,3.2,7.9v3c1.1,0,2.1-0.4,2.8-1.2L3.9,7.6z M20.7,7.9c-0.3,0-0.5-0.1-0.7-0.3
	l-2.1,2.1c0.8,0.8,1.7,1.2,2.8,1.2C20.7,10.9,20.7,7.9,20.7,7.9z M20,7.6c-0.2-0.2-0.3-0.4-0.3-0.7h-3c0,1.1,0.4,2.1,1.2,2.8L20,7.6
	z M19.7,6.9c0-0.3,0.1-0.5,0.3-0.7l-2.1-2.1c-0.8,0.8-1.2,1.7-1.2,2.8C16.7,6.9,19.7,6.9,19.7,6.9z M20,6.2c0.2-0.2,0.4-0.3,0.7-0.3
	v-3c-1.1,0-2.1,0.4-2.8,1.2L20,6.2z M20.7,5.9c0.3,0,0.5,0.1,0.7,0.3l2.1-2.1c-0.8-0.8-1.7-1.2-2.8-1.2C20.7,2.9,20.7,5.9,20.7,5.9z
	 M21.4,6.2c0.2,0.2,0.3,0.4,0.3,0.7h3c0-1.1-0.4-2.1-1.2-2.8L21.4,6.2z M21.7,6.9c0,0.3-0.1,0.5-0.3,0.7l2.1,2.1
	c0.8-0.8,1.2-1.7,1.2-2.8C24.7,6.9,21.7,6.9,21.7,6.9z M21.4,7.6c-0.2,0.2-0.4,0.3-0.7,0.3v3c1.1,0,2.1-0.4,2.8-1.2L21.4,7.6z
	 M22,12.1c0.3,0,0.5,0.1,0.7,0.3l2.1-2.1C24,9.6,23.1,9.1,22,9.1V12.1z M22.7,12.4c0.2,0.2,0.3,0.4,0.3,0.7h3c0-1.1-0.4-2.1-1.2-2.8
	L22.7,12.4z M23,13.1v1.3h3v-1.3H23z M23,14.4v-0.1v-0.1l2.1,2.1c0.5-0.5,0.8-1.2,0.8-1.9H23z M23,14.2C23,14.2,23.1,14.2,23,14.2
	c0.1-0.1,0.2-0.1,0.2-0.1v3c0.8,0,1.4-0.3,1.9-0.8L23,14.2z M23.2,14.1h-2.6v3h2.6V14.1z M22.1,15.4c-0.2-1.1-0.6-2.2-1.2-3.1
	L18.4,14c0.4,0.6,0.6,1.2,0.7,1.9L22.1,15.4z M20.9,12.3c-0.7-0.9-1.5-1.7-2.5-2.2L17,12.7c0.6,0.3,1,0.7,1.4,1.3L20.9,12.3z
	 M18.8,12.4c0.2-0.2,0.4-0.3,0.7-0.3v-3c-1.1,0-2.1,0.4-2.8,1.2L18.8,12.4z M19.5,12.1H22v-3h-2.5V12.1z M12,9.1
	c-0.5,0-1-0.1-1.4-0.4L9,11.4c0.9,0.5,1.9,0.8,2.9,0.8V9.1H12z M10.5,8.8c-0.4-0.3-0.8-0.6-1.1-1.1L6.9,9.2c0.5,0.9,1.2,1.6,2.2,2.2
	L10.5,8.8z M9.5,7.7C9.2,7.3,9.1,6.8,9.1,6.3h-3c0,1,0.3,2,0.8,2.9L9.5,7.7z M9.1,6.3c0-0.5,0.1-1,0.4-1.4L6.9,3.3
	c-0.5,0.9-0.8,1.9-0.8,3H9.1z M9.5,4.8c0.3-0.4,0.6-0.8,1.1-1.1L9,1.2C8.1,1.7,7.4,2.4,6.9,3.3L9.5,4.8z M10.5,3.8
	c0.5-0.3,1-0.4,1.5-0.4v-3c-1,0-2,0.3-2.9,0.8L10.5,3.8z M12,3.4c0.5,0,1,0.1,1.4,0.4l1.5-2.6C14,0.7,13,0.4,12,0.4V3.4z M13.4,3.8
	c0.4,0.3,0.8,0.6,1.1,1.1l2.6-1.5c-0.5-0.9-1.2-1.6-2.2-2.2L13.4,3.8z M14.5,4.8c0.3,0.4,0.4,0.9,0.4,1.4h3c0-1-0.3-2-0.8-2.9
	L14.5,4.8z M14.8,6.3c0,0.5-0.1,1-0.4,1.4L17,9.2c0.5-0.9,0.8-1.9,0.8-2.9C17.8,6.3,14.8,6.3,14.8,6.3z M14.5,7.7
	c-0.3,0.4-0.6,0.8-1.1,1.1l1.5,2.6c0.9-0.5,1.6-1.2,2.2-2.2L14.5,7.7z M13.4,8.8C13,9,12.5,9.1,12,9.1v3c1,0,2-0.3,2.9-0.8L13.4,8.8
	z M15,13.4c0.5,0,1,0.1,1.5,0.4l1.5-2.6c-0.9-0.5-1.9-0.8-3-0.8V13.4z M16.5,13.8c0.5,0.3,0.8,0.6,1.1,1.1l2.6-1.5
	c-0.5-0.9-1.3-1.6-2.2-2.2L16.5,13.8z M17.6,14.9c0.3,0.5,0.4,0.9,0.4,1.5h3c0-1.1-0.3-2.1-0.8-3L17.6,14.9z M18,16.4v1.1h3v-1.1H18
	z M18,17.5c0,0.1,0,0.2-0.1,0.3l2.1,2.1c0.6-0.6,1-1.5,1-2.4H18z M17.9,17.8c-0.1,0.1-0.1,0.1-0.3,0.1v3c0.9,0,1.7-0.3,2.4-1
	L17.9,17.8z M17.6,17.9H6.3v3h11.3V17.9z M6.3,17.9c-0.1,0-0.2,0-0.3-0.1l-2,2.1c0.6,0.6,1.5,1,2.4,1L6.3,17.9L6.3,17.9z M6.1,17.8
	C6,17.7,6,17.6,6,17.5H3c0,0.9,0.3,1.7,1,2.4L6.1,17.8z M6,17.5v-1.1H3v1.1H6z M6,16.4c0-0.5,0.1-1,0.4-1.5l-2.6-1.5
	c-0.5,0.9-0.8,1.9-0.8,3H6z M6.4,14.9c0.3-0.5,0.6-0.8,1.1-1.1L6,11.2c-0.9,0.5-1.6,1.3-2.2,2.2L6.4,14.9z M7.5,13.8
	C8,13.5,8.4,13.4,9,13.4v-3c-1.1,0-2.1,0.3-3,0.8L7.5,13.8z M9,13.4h0.3v-3H9V13.4z M8.6,13.3C9.7,13.8,10.8,14,12,14v-3
	c-0.7,0-1.4-0.2-2.1-0.5L8.6,13.3z M12,14c1.1,0,2.3-0.3,3.3-0.8L14,10.5c-0.7,0.4-1.4,0.5-2,0.5V14z M14.7,13.4H15v-3h-0.3V13.4z
	 M5.5,10.1c-1,0.5-1.8,1.3-2.5,2.2L5.5,14c0.4-0.6,0.9-1,1.4-1.3L5.5,10.1z M3,12.3c-0.7,0.9-1.1,2-1.2,3.1l3,0.4
	c0.1-0.7,0.3-1.3,0.7-1.9L3,12.3z M3.3,14.1H0.7v3h2.6V14.1z M0.7,14.1h0.1h0.1l-2.1,2.1C-0.7,16.7,0,17,0.7,17
	C0.7,17,0.7,14.1,0.7,14.1z M0.9,14.2L0.9,14.2C1,14.3,1,14.4,1,14.4h-3c0,0.8,0.3,1.4,0.8,1.9L0.9,14.2z M1,14.4v-1.3h-3v1.3H1z
	 M1,13.1c0-0.3,0.1-0.5,0.3-0.7l-2.1-2.1C-1.6,11.1-2,12.1-2,13.1H1z M1.3,12.4c0.2-0.2,0.4-0.3,0.7-0.3v-3c-1.1,0-2.1,0.4-2.8,1.2
	L1.3,12.4z M2,12.1h2.5v-3H2V12.1z M4.5,12.1c0.3,0,0.5,0.1,0.7,0.3l2.1-2.1C6.5,9.6,5.6,9.1,4.5,9.1V12.1z"/>
</svg>
